<?xml version="1.0" encoding="UTF-8"?>
<svg width="131px" height="52px" viewBox="0 0 131 52" version="1.1" xmlns="http://www.w3.org/2000/svg" xmlns:xlink="http://www.w3.org/1999/xlink">
    <!-- Generator: Sketch 62 (91390) - https://sketch.com -->
    <title>logo</title>
    <desc>Created with Sketch.</desc>
    <g id="Page-1" stroke="none" stroke-width="1" fill="none" fill-rule="evenodd">
        <g id="logo" transform="translate(0.000000, 1.000000)" fill="#FFFFFF">
            <path d="M24.3344,10.5574 L30.2971,16.4643 C29.8856,17.2837 29.6542,18.2074 29.6542,19.1846 C29.6542,22.5619 32.4179,25.2997 35.8271,25.2997 C36.1122,25.2997 36.3927,25.2806 36.6675,25.2435 L36.6675,31.1014 L25.7182,41.3647 C24.749,39.2446 22.5945,37.7698 20.0922,37.7698 C19.6351,37.7698 19.1896,37.819 18.7607,37.9124 L18.7607,12.0876 C19.1896,12.181 19.6351,12.2302 20.0922,12.2302 C21.7353,12.2302 23.2284,11.5943 24.3344,10.5574 Z M26.0515,7.716 L32.4788,13.9282 L32.5141,14.0239 C32.1184,14.2738 31.7534,14.567 31.4258,14.8969 L25.4811,9.0999 C25.7253,8.66826 25.9181,8.20424 26.0515,7.716 Z" id="Shape"></path>
            <path d="M35.8272,13.0696 C39.2364,13.0696 42.0001,15.8074 42.0001,19.1847 C42.0001,22.562 39.2364,25.2998 35.8272,25.2998 C32.418,25.2998 29.6543,22.562 29.6543,19.1847 C29.6543,15.8074 32.418,13.0696 35.8272,13.0696 Z M35.8877,14.8681 C33.4478,14.8681 31.4699,16.8276 31.4699,19.2446 C31.4699,21.6617 33.4478,23.6211 35.8877,23.6211 C38.3276,23.6211 40.3056,21.6617 40.3056,19.2446 C40.3056,16.8276 38.3276,14.8681 35.8877,14.8681 Z" id="Shape" stroke="#FFFFFF"></path>
            <path d="M20.0923,37.7698 C23.5015,37.7698 26.2653,40.5077 26.2653,43.8849 C26.2653,47.2622 23.5015,50.0001 20.0923,50.0001 C16.6831,50.0001 13.9194,47.2622 13.9194,43.8849 C13.9194,40.5077 16.6831,37.7698 20.0923,37.7698 Z M20.1529,39.5684 C17.7129,39.5684 15.735,41.5278 15.735,43.9449 C15.735,46.362 17.7129,48.3214 20.1529,48.3214 C22.5928,48.3214 24.5707,46.362 24.5707,43.9449 C24.5707,41.5278 22.5928,39.5684 20.1529,39.5684 Z" id="Shape" stroke="#FFFFFF"></path>
            <path d="M20.0923,0 C23.5015,0 26.2653,2.73783 26.2653,6.11511 C26.2653,9.4924 23.5015,12.2302 20.0923,12.2302 C16.6831,12.2302 13.9194,9.4924 13.9194,6.11511 C13.9194,2.73783 16.6831,0 20.0923,0 Z M20.1529,1.79856 C17.7129,1.79856 15.735,3.75799 15.735,6.17506 C15.735,8.59213 17.7129,10.5516 20.1529,10.5516 C22.5928,10.5516 24.5707,8.59213 24.5707,6.17506 C24.5707,3.75799 22.5928,1.79856 20.1529,1.79856 Z" id="Shape" stroke="#FFFFFF"></path>
            <path d="M6.17291,17.6259 C9.58212,17.6259 12.3458,20.3637 12.3458,23.741 C12.3458,27.1182 9.58212,29.8561 6.17291,29.8561 C2.76371,29.8561 0,27.1182 0,23.741 C0,20.3637 2.76371,17.6259 6.17291,17.6259 Z M6.23343,19.4244 C3.79351,19.4244 1.81556,21.3838 1.81556,23.8009 C1.81556,26.218 3.79351,28.1774 6.23343,28.1774 C8.67335,28.1774 10.6513,26.218 10.6513,23.8009 C10.6513,21.3838 8.67335,19.4244 6.23343,19.4244 Z" id="Shape"></path>
            <polygon id="Path" fill-rule="nonzero" points="18.7608 23.5012 11.6196 23.5012 11.6196 25.8993 18.7608 25.8993"></polygon>
            <polygon id="Path" points="5.32568 29.4265 7.6254 29.1048 7.6254 33.1007 15.5533 39.9188 14.2391 41.863 5.32568 34.0269"></polygon>
            <path d="M60.872,28.832 L67.28,28.832 L67.28,32 L57.56,32 L57.56,15.2 L60.872,15.2 L60.872,28.832 Z M70.5536,18.56 C70.0416,18.56 69.5936,18.376 69.2096,18.008 C68.8416,17.624 68.6576,17.176 68.6576,16.664 C68.6576,16.152 68.8416,15.704 69.2096,15.32 C69.5936,14.936 70.0416,14.744 70.5536,14.744 C71.0816,14.744 71.5296,14.936 71.8976,15.32 C72.2816,15.704 72.4736,16.152 72.4736,16.664 C72.4736,17.176 72.2816,17.624 71.8976,18.008 C71.5296,18.376 71.0816,18.56 70.5536,18.56 Z M69.0176,32 L69.0176,20 L72.1136,20 L72.1136,32 L69.0176,32 Z M86.0113,32 L82.4113,32 L78.0433,26.552 L78.0433,32 L74.9473,32 L74.9473,15.2 L78.0433,15.2 L78.0433,25.28 L82.1713,20 L85.8672,20 L81.0433,25.928 L86.0113,32 Z M89.3054,27.272 C89.7214,28.776 90.8494,29.528 92.6894,29.528 C93.8734,29.528 94.7694,29.128 95.3774,28.328 L97.8734,29.768 C96.6894,31.48 94.9454,32.336 92.6414,32.336 C90.6574,32.336 89.0654,31.736 87.8654,30.536 C86.6654,29.336 86.0654,27.824 86.0654,26 C86.0654,24.192 86.6574,22.688 87.8414,21.488 C89.0254,20.272 90.5454,19.664 92.4014,19.664 C94.1614,19.664 95.6094,20.272 96.7454,21.488 C97.8974,22.704 98.4734,24.208 98.4734,26 C98.4734,26.4 98.4334,26.824 98.3534,27.272 L89.3054,27.272 Z M89.2574,24.872 L95.3774,24.872 C95.2014,24.056 94.8334,23.448 94.2734,23.048 C93.7294,22.648 93.1054,22.448 92.4014,22.448 C91.5694,22.448 90.8814,22.664 90.3374,23.096 C89.7934,23.512 89.4334,24.104 89.2574,24.872 Z M104.091,28.832 L110.499,28.832 L110.499,32 L100.779,32 L100.779,15.2 L104.091,15.2 L104.091,28.832 Z M113.772,18.56 C113.26,18.56 112.812,18.376 112.428,18.008 C112.06,17.624 111.876,17.176 111.876,16.664 C111.876,16.152 112.06,15.704 112.428,15.32 C112.812,14.936 113.26,14.744 113.772,14.744 C114.3,14.744 114.748,14.936 115.116,15.32 C115.5,15.704 115.692,16.152 115.692,16.664 C115.692,17.176 115.5,17.624 115.116,18.008 C114.748,18.376 114.3,18.56 113.772,18.56 Z M112.236,32 L112.236,20 L115.332,20 L115.332,32 L112.236,32 Z M125.15,19.664 C126.766,19.664 128.142,20.28 129.278,21.512 C130.43,22.728 131.006,24.224 131.006,26 C131.006,27.776 130.43,29.28 129.278,30.512 C128.142,31.728 126.766,32.336 125.15,32.336 C123.47,32.336 122.174,31.752 121.262,30.584 L121.262,32 L118.166,32 L118.166,15.2 L121.262,15.2 L121.262,21.416 C122.174,20.248 123.47,19.664 125.15,19.664 Z M122.198,28.448 C122.822,29.072 123.614,29.384 124.574,29.384 C125.534,29.384 126.326,29.072 126.95,28.448 C127.59,27.808 127.91,26.992 127.91,26 C127.91,25.008 127.59,24.2 126.95,23.576 C126.326,22.936 125.534,22.616 124.574,22.616 C123.614,22.616 122.822,22.936 122.198,23.576 C121.574,24.2 121.262,25.008 121.262,26 C121.262,26.992 121.574,27.808 122.198,28.448 Z" id="Shape" fill-rule="nonzero"></path>
        </g>
    </g>
</svg>
