<svg width="33" height="33" viewBox="0 0 33 33" fill="none" xmlns="http://www.w3.org/2000/svg">
<path d="M15.4856 32.026L15.4349 32.7786L15.4385 32.7788L15.4856 32.026ZM24.8418 29.6122L25.2475 30.248L25.2501 30.2464L24.8418 29.6122ZM25.7011 22.8486L26.2992 22.389L26.2945 22.383L25.7011 22.8486ZM0.97398 15.5114L0.221419 15.4604L0.221164 15.4645L0.97398 15.5114ZM3.38463 24.8801L2.7499 25.2876L3.38463 24.8801ZM10.1392 25.7404L10.5995 26.3381L10.6056 26.3333L10.1392 25.7404ZM17.5144 0.980595L17.4621 1.73306L17.4637 1.73317L17.5144 0.980595ZM8.13433 3.39444L8.5426 4.02868L8.54401 4.02777L8.13433 3.39444ZM7.27509 10.158L6.6769 10.6175L6.68168 10.6236L7.27509 10.158ZM32.026 17.4951L32.7785 17.5467L32.7788 17.5421L32.026 17.4951ZM29.6153 8.12654L30.2518 7.72159L30.2501 7.71903L29.6153 8.12654ZM22.8608 7.26615L22.4005 6.66855L22.3944 6.67334L22.8608 7.26615ZM23.3546 14.6719L23.898 15.1949L23.3546 14.6719ZM23.3179 15.2828L23.92 14.8284L23.3179 15.2828ZM26.7661 4.80521L26.2666 5.37034L26.7661 4.80521ZM26.1909 4.77931L25.7499 4.16735L26.1909 4.77931ZM30.3608 23.53L31.0333 23.8715L30.3608 23.53ZM29.5882 23.5896L30.1902 23.1351L29.5882 23.5896ZM11.9963 7.59885L11.6556 6.92592L11.9963 7.59885ZM12.5204 7.68182L11.9971 8.22508L12.5204 7.68182ZM7.65306 10.6397L7.05964 11.1053L7.65306 10.6397ZM4.81672 6.24822L4.25089 5.74944L4.81672 6.24822ZM4.79088 6.82255L5.4034 6.38236L4.79088 6.82255ZM9.78195 18.3361L9.24344 17.8079L9.78195 18.3361ZM9.82033 17.7203L10.4204 17.2632L9.82033 17.7203ZM10.6215 25.361L11.0879 25.9539L10.6215 25.361ZM25.5685 12.3714L25.025 11.8483L25.5685 12.3714ZM3.43427 9.33821L4.03426 8.8811L3.43427 9.33821ZM18.3282 23.2256L18.8546 22.6854L18.3282 23.2256ZM17.7167 23.1857L17.2648 22.5819L17.7167 23.1857ZM22.3822 7.64264L21.9159 7.04984L22.3822 7.64264ZM22.4091 8.43021L21.9635 9.03884L22.4091 8.43021ZM21.0064 25.4046L20.6621 24.7333L21.0064 25.4046ZM20.4782 25.3207L21.0046 24.7805L20.4782 25.3207ZM7.58693 21.0161L6.91541 21.3597L7.58693 21.0161ZM7.672 20.4872L8.21049 21.0154L7.672 20.4872ZM28.1595 26.7584L27.5936 26.2595L28.1595 26.7584ZM28.1852 26.184L28.7978 25.7439L28.1852 26.184ZM23.7247 3.48327L23.2859 2.86975L23.7247 3.48327ZM25.3277 22.3728L24.7343 22.8385L25.3277 22.3728ZM24.5374 22.4006L23.9279 21.9563L24.5374 22.4006ZM6.23387 28.2014L6.73343 27.6362L6.23387 28.2014ZM6.80912 28.2273L7.25009 28.8392L6.80912 28.2273ZM14.511 9.59917L15.0343 9.05593L14.511 9.59917ZM15.1124 9.6431L14.6736 9.0296L15.1124 9.6431ZM9.30519 30.2909L9.65505 29.6227L9.30519 30.2909ZM9.25242 29.5208L9.70436 30.1247L9.25242 29.5208ZM8.95532 30.9591C10.9027 31.9787 13.0992 32.6212 15.4349 32.7786L15.5363 31.2735C13.413 31.1303 11.42 30.5467 9.65505 29.6227L8.95532 30.9591ZM15.4385 32.7788C19.0407 33.0043 22.4207 32.0516 25.2475 30.248L24.4361 28.9763C21.8688 30.6142 18.8044 31.478 15.5327 31.2732L15.4385 32.7788ZM25.2501 30.2464C26.5431 29.4141 27.7082 28.4109 28.7253 27.2572L27.5936 26.2595C26.6681 27.3094 25.6089 28.2213 24.4336 28.9779L25.2501 30.2464ZM28.7978 25.7439C28.0165 24.6568 27.1775 23.5323 26.2992 22.3891L25.1029 23.3081C25.973 24.4408 26.8023 25.5522 27.5727 26.6242L28.7978 25.7439ZM26.2945 22.383C26.17 22.2244 26.0456 22.0658 25.9211 21.9072L24.7343 22.8385C24.8587 22.9971 24.9832 23.1557 25.1076 23.3142L26.2945 22.383ZM23.9279 21.9563C23.0828 23.1152 21.9532 24.0712 20.6621 24.7333L21.3506 26.0757C22.8454 25.309 24.1589 24.2 25.1468 22.845L23.9279 21.9563ZM21.0046 24.7805L18.8546 22.6854L17.8018 23.7658L19.9517 25.8609L21.0046 24.7805ZM17.2648 22.5819L8.80045 28.9169L9.70436 30.1247L18.1687 23.7896L17.2648 22.5819ZM1.99258 9.0539C0.998787 10.9928 0.378415 13.1474 0.22143 15.4604L1.72654 15.5625C1.86942 13.4573 2.43311 11.5018 3.33507 9.74201L1.99258 9.0539ZM0.221164 15.4645C-0.00383535 19.0692 0.946364 22.4783 2.7499 25.2876L4.01937 24.4725C2.38595 21.9283 1.52219 18.8367 1.7268 15.5585L0.221164 15.4645ZM2.7499 25.2876C3.58091 26.582 4.58248 27.7483 5.7343 28.7665L6.73343 27.6362C5.68532 26.7098 4.77487 25.6493 4.01937 24.4725L2.7499 25.2876ZM7.25009 28.8392C8.33543 28.0572 9.45808 27.2172 10.5995 26.338L9.67899 25.1429C8.5481 26.0139 7.43845 26.8441 6.36815 27.6153L7.25009 28.8392ZM10.6056 26.3333C10.7664 26.2067 10.9271 26.0803 11.0879 25.9539L10.155 24.7682C9.99438 24.8947 9.83362 25.0212 9.67286 25.1476L10.6056 26.3333ZM11.0464 23.9696C9.88077 23.1056 8.92159 21.9689 8.25845 20.6726L6.91541 21.3597C7.68323 22.8605 8.79373 24.1776 10.1481 25.1816L11.0464 23.9696ZM8.21049 21.0154L10.3204 18.8642L9.24344 17.8079L7.13351 19.9591L8.21049 21.0154ZM10.4204 17.2632L4.03426 8.8811L2.83428 9.79537L9.22038 18.1774L10.4204 17.2632ZM24.0289 2.03919C22.0854 1.02437 19.8945 0.385009 17.5651 0.228013L17.4637 1.73317C19.5813 1.87588 21.5693 2.45671 23.3306 3.37643L24.0289 2.03919ZM17.5667 0.228123C13.9617 -0.0225527 10.5543 0.930634 7.72465 2.76111L8.54401 4.02777C11.1085 2.36892 14.1931 1.50575 17.4621 1.73306L17.5667 0.228123ZM7.72606 2.7602C6.43296 3.59257 5.26787 4.59577 4.25089 5.74944L5.38253 6.74701C6.30801 5.69717 7.36719 4.78531 8.5426 4.02868L7.72606 2.7602ZM4.17837 7.26274C4.9596 8.34981 5.79866 9.47424 6.67693 10.6175L7.87324 9.69845C7.00312 8.5658 6.17382 7.45437 5.4034 6.38236L4.17837 7.26274ZM6.68168 10.6236C6.80766 10.7841 6.93366 10.9447 7.05964 11.1053L8.24646 10.174C8.12047 10.0135 7.99449 9.85289 7.8685 9.69232L6.68168 10.6236ZM9.04602 11.0624C9.90754 9.89277 11.0297 8.93381 12.3371 8.27177L11.6556 6.92592C10.1341 7.69639 8.83046 8.81133 7.83139 10.1677L9.04602 11.0624ZM11.9971 8.22508L13.9878 10.1424L15.0343 9.05593L13.0437 7.13855L11.9971 8.22508ZM15.5512 10.2566L24.1635 4.09678L23.2859 2.86975L14.6736 9.0296L15.5512 10.2566ZM31.0333 23.8715C32.004 21.9602 32.6218 19.8332 32.7785 17.5467L31.2735 17.4436C31.1312 19.5209 30.5704 21.4514 29.6882 23.1884L31.0333 23.8715ZM32.7788 17.5421C33.004 13.9358 32.0527 10.5519 30.2518 7.72159L28.979 8.53148C30.6149 11.1024 31.4778 14.1714 31.2732 17.4482L32.7788 17.5421ZM30.2501 7.71903C29.4191 6.42462 28.4175 5.25826 27.2657 4.24007L26.2666 5.37034C27.3147 6.29686 28.2251 7.35725 28.9806 8.53404L30.2501 7.71903ZM25.7499 4.16735C24.6646 4.94944 23.5419 5.78939 22.4005 6.66858L23.3211 7.86372C24.4519 6.99268 25.5615 6.16252 26.6318 5.39127L25.7499 4.16735ZM22.3944 6.67334C22.2348 6.79884 22.0754 6.92434 21.9159 7.04984L22.8486 8.23546C23.0082 8.10996 23.1677 7.98446 23.3271 7.85896L22.3944 6.67334ZM21.9635 9.03884C23.2249 9.96226 24.2348 11.1975 24.8994 12.6068L26.2639 11.9633C25.4937 10.3301 24.3226 8.89628 22.8547 7.8216L21.9635 9.03884ZM25.025 11.8483L22.811 14.1489L23.898 15.1949L26.1121 12.8944L25.025 11.8483ZM22.7159 15.7373L28.9862 24.044L30.1902 23.1351L23.92 14.8284L22.7159 15.7373ZM22.811 14.1489C22.3932 14.583 22.3529 15.2564 22.7159 15.7373L23.92 14.8284C24.0037 14.9394 23.9944 15.0948 23.898 15.1949L22.811 14.1489ZM27.2657 4.24007C26.8336 3.8581 26.2038 3.84031 25.7499 4.16735L26.6318 5.39127C26.5279 5.46616 26.3755 5.46665 26.2666 5.37034L27.2657 4.24007ZM29.6882 23.1884C29.7997 22.969 30.0756 22.9833 30.1902 23.1351L28.9862 24.044C29.5097 24.7376 30.6145 24.6961 31.0333 23.8715L29.6882 23.1884ZM12.3371 8.27177C12.2122 8.33503 12.0774 8.30249 11.9971 8.22508L13.0437 7.13855C12.6825 6.79064 12.1283 6.6865 11.6556 6.92592L12.3371 8.27177ZM7.05964 11.1053C7.58972 11.7808 8.57916 11.6962 9.04602 11.0624L7.83139 10.1677C7.87871 10.1034 7.95096 10.0698 8.02112 10.0673C8.09427 10.0646 8.18524 10.0961 8.24646 10.174L7.05964 11.1053ZM4.25089 5.74944C3.87032 6.18115 3.85257 6.80941 4.17837 7.26274L5.4034 6.38236C5.47801 6.48617 5.47848 6.63819 5.38253 6.74701L4.25089 5.74944ZM10.3204 18.8642C10.7469 18.4295 10.7894 17.7476 10.4204 17.2632L9.22038 18.1774C9.13521 18.0656 9.14503 17.9083 9.24344 17.8079L10.3204 18.8642ZM11.0879 25.9539C11.7619 25.4235 11.6766 24.4368 11.0464 23.9696L10.1481 25.1816C10.0844 25.1343 10.0512 25.0627 10.0487 24.993C10.046 24.9202 10.0773 24.8295 10.155 24.7682L11.0879 25.9539ZM24.9069 12.6221C24.7786 12.3651 24.8259 12.0552 25.025 11.8483L26.1121 12.8944C26.3556 12.6413 26.4135 12.2623 26.2565 11.948L24.9069 12.6221ZM3.33507 9.74201C3.22333 9.96 2.94898 9.94586 2.83428 9.79537L4.03426 8.8811C3.51026 8.19331 2.41238 8.23485 1.99258 9.0539L3.33507 9.74201ZM18.8546 22.6854C18.4224 22.2642 17.7479 22.2203 17.2648 22.5819L18.1687 23.7896C18.0572 23.8731 17.9016 23.863 17.8018 23.7658L18.8546 22.6854ZM21.9159 7.04984C21.2389 7.58245 21.3284 8.57386 21.9635 9.03884L22.8547 7.8216C22.9187 7.86851 22.9523 7.94023 22.955 8.0099C22.9579 8.08267 22.9269 8.17392 22.8486 8.23546L21.9159 7.04984ZM20.6621 24.7333C20.7877 24.6689 20.9239 24.7019 21.0046 24.7805L19.9517 25.8609C20.3144 26.2144 20.8747 26.3198 21.3506 26.0757L20.6621 24.7333ZM8.25845 20.6726C8.32284 20.7985 8.28957 20.9348 8.21049 21.0154L7.13351 19.9591C6.77816 20.3213 6.67133 20.8825 6.91541 21.3597L8.25845 20.6726ZM28.7253 27.2572C29.1058 26.8254 29.1235 26.1972 28.7978 25.7439L27.5727 26.6242C27.4981 26.5204 27.4977 26.3684 27.5936 26.2595L28.7253 27.2572ZM23.3306 3.37643C23.1088 3.26057 23.1308 2.98065 23.2859 2.86975L24.1635 4.09678C24.8746 3.58823 24.8567 2.47143 24.0289 2.03919L23.3306 3.37643ZM25.9211 21.9072C25.387 21.2265 24.392 21.3197 23.9279 21.9563L25.1468 22.845C25.1003 22.9089 25.0291 22.9422 24.96 22.945C24.8877 22.948 24.7961 22.9172 24.7343 22.8385L25.9211 21.9072ZM5.7343 28.7665C6.1664 29.1485 6.79623 29.1663 7.25009 28.8392L6.36815 27.6153C6.47208 27.5404 6.62449 27.5399 6.73343 27.6362L5.7343 28.7665ZM13.9878 10.1424C14.4133 10.5523 15.0706 10.6003 15.5512 10.2566L14.6736 9.0296C14.7845 8.95028 14.9362 8.96135 15.0343 9.05593L13.9878 10.1424ZM9.65505 29.6227C9.87303 29.7368 9.8554 30.0116 9.70436 30.1247L8.80045 28.9169C8.10917 29.4343 8.13951 30.532 8.95532 30.9591L9.65505 29.6227Z" fill="#0029FF"/>
</svg>
